HIERARCHY
ROOT root
{
	OFFSET	0	13.1	24.9
	CHANNELS 6  Xposition Yposition Zposition Xrotation Yrotation Zrotation
	JOINT spine_1
	{
		OFFSET	0	9.99999	0
		CHANNELS 3  Xrotation Yrotation Zrotation
		JOINT spine_2
		{
			OFFSET	0	112	-10
			CHANNELS 3  Xrotation Yrotation Zrotation
			JOINT spine_3
			{
				OFFSET	0	206.5	19.3
				CHANNELS 3  Xrotation Yrotation Zrotation
				JOINT spine_4
				{
					OFFSET	0	110.4	14.6
					CHANNELS 3  Xrotation Yrotation Zrotation
					JOINT neck_1
					{
						OFFSET	0	71.8	-50.3
						CHANNELS 3  Xrotation Yrotation Zrotation
						JOINT neck_2
						{
							OFFSET	0	86.2	-25.8
							CHANNELS 3  Xrotation Yrotation Zrotation
							JOINT head_ee
							{
								OFFSET	0	179.8	-8.7
								CHANNELS 3  Xrotation Yrotation Zrotation
								End Site
								{
									OFFSET	1	0	0
								}
							}
						}
					}
					JOINT left_clavicle
					{
						OFFSET	-43.2	22.4	-70.8
						CHANNELS 3  Xrotation Yrotation Zrotation
						JOINT left_shoulder
						{
							OFFSET	-93.9	-5.79999	48.7
							CHANNELS 3  Xrotation Yrotation Zrotation
							JOINT left_elbow
							{
								OFFSET	-291.4	-30.8	15.2
								CHANNELS 3  Xrotation Yrotation Zrotation
								JOINT left_lowarm_twist
								{
									OFFSET	-110.7	-3.89999	13.6
									CHANNELS 3  Xrotation Yrotation Zrotation
									JOINT left_hand
									{
										OFFSET	-110.7	-3.89999	13.6
										CHANNELS 3  Xrotation Yrotation Zrotation
										JOINT left_ee
										{
											OFFSET	-80.8	-5.10001	12.1
											CHANNELS 3  Xrotation Yrotation Zrotation
											End Site
											{
												OFFSET	1	0	0
											}
										}
									}
								}
							}
						}
					}
					JOINT right_clavicle
					{
						OFFSET	43.2	22.4	-70.8
						CHANNELS 3  Xrotation Yrotation Zrotation
						JOINT right_shoulder
						{
							OFFSET	93.9	-5.79999	48.7
							CHANNELS 3  Xrotation Yrotation Zrotation
							JOINT right_elbow
							{
								OFFSET	291.4	-30.8	15.2
								CHANNELS 3  Xrotation Yrotation Zrotation
								JOINT right_lowarm_twist
								{
									OFFSET	110.7	-3.89999	13.6
									CHANNELS 3  Xrotation Yrotation Zrotation
									JOINT right_hand
									{
										OFFSET	110.7	-3.89999	13.6
										CHANNELS 3  Xrotation Yrotation Zrotation
										JOINT right_ee
										{
											OFFSET	80.8	-5.10001	12.1
											CHANNELS 3  Xrotation Yrotation Zrotation
											End Site
											{
												OFFSET	1	0	0
											}
										}
									}
								}
							}
						}
					}
				}
			}
		}
	}
	JOINT left_hip
	{
		OFFSET	-82.8	-127.5	0.300001
		CHANNELS 3  Xrotation Yrotation Zrotation
		JOINT left_knee
		{
			OFFSET	-28.2	-396.7	2.2
			CHANNELS 3  Xrotation Yrotation Zrotation
			JOINT left_ankle
			{
				OFFSET	-11.7	-411.3	35.4
				CHANNELS 3  Xrotation Yrotation Zrotation
				JOINT left_toes
				{
					OFFSET	0	-60	-88.6
					CHANNELS 3  Xrotation Yrotation Zrotation
					JOINT left_foot_ee
					{
						OFFSET	-22.5	-16.5	-42.2
						CHANNELS 3  Xrotation Yrotation Zrotation
						End Site
						{
							OFFSET	1	0	0
						}
					}
				}
			}
		}
	}
	JOINT right_hip
	{
		OFFSET	82.8	-127.5	0.300001
		CHANNELS 3  Xrotation Yrotation Zrotation
		JOINT right_knee
		{
			OFFSET	28.2	-396.7	2.2
			CHANNELS 3  Xrotation Yrotation Zrotation
			JOINT right_ankle
			{
				OFFSET	11.7	-411.3	35.4
				CHANNELS 3  Xrotation Yrotation Zrotation
				JOINT right_toes
				{
					OFFSET	0	-60	-88.6
					CHANNELS 3  Xrotation Yrotation Zrotation
					JOINT right_foot_ee
					{
						OFFSET	22.5	-16.5	-42.2
						CHANNELS 3  Xrotation Yrotation Zrotation
						End Site
						{
							OFFSET	1	0	0
						}
					}
				}
			}
		}
	}
}
MOTION
Frames: 8
Frame Time: 0.02
2534.92336385 757.501 -1524.6386681 10.4714093667 79.5088007444 -17.6247348289 0.499852 0.745922 4.26172 0.509829 0.473484 4.30045 0.549431 -0.399952 4.3079 0.523655 0.284766 4.31703 -19.0573 7.93273 -6.29789 -19.4261 18.5678 -2.61159 -0.0 0.0 -0.0 -3.97189 14.5502 -4.72856 -5.93736 -25.0467 71.6355 0.289626 -8.16482 0.0206713 6.79052 0.189284 -0.846245 0.749365 27.5159 15.0542 -0.0 0.0 -0.0 10.2427 10.4675 -20.3597 -15.2814 26.5712 -57.2517 2.01398 44.928 -0.832806 -7.54776 0.326269 -0.907373 -1.26317 -23.3943 -2.05186 0.0 0.0 0.0 11.6751 -6.29357 5.60843 -31.1027 0.000253251 4.71499 -25.6449 28.7727 4.10842 28.5207 -0.0 -0.0 -0.0 0.0 -0.0 19.6567 20.8288 1.68223 -24.2196 -0.221734 -3.68249 -3.967 15.8293 -0.642926 -17.7039 0.0 0.0 0.0 0.0 0.0 
2525.34566227 748.337 -1518.1548849 11.5387494259 82.4746825775 -18.1695273889 0.69769 0.559313 4.18892 0.707402 0.291871 4.21595 0.731988 -0.547965 4.19041 0.707511 0.120098 4.22432 -18.4425 7.08785 -9.13421 -18.6575 18.5185 -5.72201 -0.0 0.0 -0.0 -4.33467 14.5449 -5.32521 -6.77959 -24.6619 72.3478 0.195576 -5.53382 0.00945199 8.46144 0.22038 -1.05742 1.41427 29.4101 19.3931 -0.0 0.0 -0.0 10.0988 9.60839 -20.054 -13.1212 26.5727 -55.4247 2.17935 47.1855 -0.951901 -7.7312 0.335678 -0.928865 -1.3781 -23.2059 -1.30865 0.0 0.0 0.0 12.5133 -5.69264 5.44669 -27.9763 0.116241 4.24927 -25.0643 29.1013 4.02405 27.7796 -0.0 -0.0 -0.0 0.0 -0.0 19.1248 20.9524 1.42109 -22.8885 -0.250163 -3.4802 1.2465 16.5201 0.200468 -17.6942 0.0 0.0 0.0 0.0 0.0 
2523.91225756 748.337 -1508.09035712 15.8723706515 84.5034746664 -22.530570799 0.69769 0.559313 4.18892 0.707402 0.291871 4.21595 0.731988 -0.547965 4.19041 0.707511 0.120098 4.22432 -18.4425 7.08785 -9.13421 -18.6575 18.5185 -5.72201 -0.0 0.0 -0.0 -4.33467 14.5449 -5.32521 -6.77959 -24.6619 72.3478 0.195576 -5.53382 0.00945199 8.46144 0.22038 -1.05742 1.41427 29.4101 19.3931 -0.0 0.0 -0.0 10.0988 9.60839 -20.054 -13.1212 26.5727 -55.4247 2.17935 47.1855 -0.951901 -7.7312 0.335678 -0.928865 -1.3781 -23.2059 -1.30865 0.0 0.0 0.0 12.5133 -5.69264 5.44669 -27.9763 0.116241 4.24927 -25.0643 29.1013 4.02405 27.7796 -0.0 -0.0 -0.0 0.0 -0.0 19.1248 20.9524 1.42109 -22.8885 -0.250163 -3.4802 1.2465 16.5201 0.200468 -17.6942 0.0 0.0 0.0 0.0 0.0 
2510.94056304 741.429 -1490.43269963 -4.9731522388 86.652154289 -2.27072901862 0.830641 0.333697 4.33118 0.841072 0.0576825 4.34361 0.847984 -0.794826 4.27079 0.822556 -0.111023 4.34257 -15.6295 4.97298 -12.4301 -15.4554 16.7827 -10.0688 -0.0 0.0 -0.0 -4.52364 14.5902 -5.62552 -7.84859 -22.8092 73.6663 0.171663 -4.86067 0.00728585 10.358 0.248197 -1.29807 2.58615 30.1767 26.4788 -0.0 0.0 -0.0 10.8209 7.5854 -21.6348 -10.4509 26.6887 -53.333 2.59617 52.1239 -1.26988 -7.9339 0.346154 -0.952578 -2.0057 -19.6549 4.02885 0.0 0.0 0.0 14.0352 -5.30833 3.67075 -15.8563 0.321966 2.40426 -18.211 27.0475 2.8819 27.6948 -0.0 -0.0 -0.0 0.0 -0.0 19.1855 19.9764 2.8036 -21.955 -0.26729 -3.33799 12.7939 17.8062 1.99418 -16.0668 0.0 0.0 0.0 0.0 0.0 
2503.80127478 750.204 -1485.34380798 -3.99595542402 87.2403411244 -3.07490337938 0.431598 0.149126 4.46005 0.442651 -0.134693 4.4605 0.43559 -1.03833 4.34029 0.409472 -0.340541 4.44955 -14.7731 3.97972 -13.495 -14.4574 15.6934 -11.5468 -0.0 0.0 -0.0 -4.38185 14.3741 -5.44194 -8.11426 -21.7902 74.1627 0.187151 -5.29683 0.00865695 11.1599 0.257559 -1.40007 2.9479 30.2271 28.7205 -0.0 0.0 -0.0 10.3652 6.16632 -20.625 -11.233 25.7048 -52.4896 2.76349 53.8426 -1.40349 -8.26693 0.363548 -0.991458 -2.15853 -16.5243 6.50012 0.0 0.0 0.0 13.2098 -3.49919 3.51904 -11.3015 0.297882 1.70602 -13.9805 26.0662 2.19348 28.4248 -0.0 -0.0 -0.0 0.0 -0.0 20.2666 19.7714 2.95715 -21.8408 -0.269226 -3.32057 16.073 17.932 2.47032 -15.3536 0.0 0.0 0.0 0.0 0.0 
2435.74452375 753.518 -1476.68184837 -11.8837166317 82.0750953501 4.93670349928 0.533738 0.741074 3.77751 0.541537 0.499379 3.81693 0.578054 -0.275312 3.83957 0.557641 0.334074 3.83491 -9.3023 0.428371 -7.32591 -9.15217 5.84436 -7.09355 -0.0 0.0 -0.0 -3.17862 14.0245 -3.53579 -9.73672 -18.697 70.1659 0.290952 -8.2017 0.02086 11.4691 0.260787 -1.43943 2.50178 29.8984 25.9159 -0.0 0.0 -0.0 8.28635 6.06388 -16.1994 -15.5369 26.0375 -56.724 3.83801 62.2398 -2.31761 -6.62558 0.28002 -0.798888 -2.62798 -4.14221 15.7883 0.0 0.0 0.0 6.87717 10.3092 3.98057 -2.99097 0.111542 0.445414 -10.5695 31.3588 1.70894 29.6804 -0.0 -0.0 -0.0 0.0 -0.0 18.5344 11.5921 5.29091 -22.3651 -0.260051 -3.4005 9.20755 16.5196 1.44149 -13.5969 0.0 0.0 0.0 0.0 0.0 
2435.73304825 753.518 -1474.08165568 -12.5192693733 82.4738243558 5.57807375048 0.533738 0.741074 3.77751 0.541537 0.499379 3.81693 0.578054 -0.275312 3.83957 0.557641 0.334074 3.83491 -9.3023 0.428371 -7.32591 -9.15217 5.84436 -7.09355 -0.0 0.0 -0.0 -3.17862 14.0245 -3.53579 -9.73672 -18.697 70.1659 0.290952 -8.2017 0.02086 11.4691 0.260787 -1.43943 2.50178 29.8984 25.9159 -0.0 0.0 -0.0 8.28635 6.06388 -16.1994 -15.5369 26.0375 -56.724 3.83801 62.2398 -2.31761 -6.62558 0.28002 -0.798888 -2.62798 -4.14221 15.7883 0.0 0.0 0.0 6.87717 10.3092 3.98057 -2.99097 0.111542 0.445414 -10.5695 31.3588 1.70894 29.6804 -0.0 -0.0 -0.0 0.0 -0.0 18.5344 11.5921 5.29091 -22.3651 -0.260051 -3.4005 9.20755 16.5196 1.44149 -13.5969 0.0 0.0 0.0 0.0 0.0 
2435.77569096 753.518 -1468.18053305 -14.2457080414 83.3746242568 7.31770592443 0.533738 0.741074 3.77751 0.541537 0.499379 3.81693 0.578054 -0.275312 3.83957 0.557641 0.334074 3.83491 -9.3023 0.428371 -7.32591 -9.15217 5.84436 -7.09355 -0.0 0.0 -0.0 -3.17862 14.0245 -3.53579 -9.73672 -18.697 70.1659 0.290952 -8.2017 0.02086 11.4691 0.260787 -1.43943 2.50178 29.8984 25.9159 -0.0 0.0 -0.0 8.28635 6.06388 -16.1994 -15.5369 26.0375 -56.724 3.83801 62.2398 -2.31761 -6.62558 0.28002 -0.798888 -2.62798 -4.14221 15.7883 0.0 0.0 0.0 6.87717 10.3092 3.98057 -2.99097 0.111542 0.445414 -10.5695 31.3588 1.70894 29.6804 -0.0 -0.0 -0.0 0.0 -0.0 18.5344 11.5921 5.29091 -22.3651 -0.260051 -3.4005 9.20755 16.5196 1.44149 -13.5969 0.0 0.0 0.0 0.0 0.0 
